<mxfile host="app.diagrams.net" modified="2024-06-16T09:23:46.898Z" agent="Mozilla/5.0 (Windows NT 10.0; Win64; x64) AppleWebKit/537.36 (KHTML, like Gecko) Chrome/126.0.0.0 Safari/537.36" etag="mg7KQG2rSNymZ1wsjVMQ" version="24.5.4" type="github" pages="2">
  <diagram name="Page-1" id="lpQ0eJvXcRM7gWXpZsL8">
    <mxGraphModel dx="910" dy="1305" grid="1" gridSize="10" guides="1" tooltips="1" connect="1" arrows="1" fold="1" page="1" pageScale="1" pageWidth="850" pageHeight="1100" math="0" shadow="0">
      <root>
        <mxCell id="0" />
        <mxCell id="1" parent="0" />
        <mxCell id="sHecumkxKeYLhao5GwyI-2" value="" style="rounded=0;whiteSpace=wrap;html=1;" vertex="1" parent="1">
          <mxGeometry x="40" y="40" width="240" height="40" as="geometry" />
        </mxCell>
        <mxCell id="sHecumkxKeYLhao5GwyI-3" value="" style="rounded=0;whiteSpace=wrap;html=1;" vertex="1" parent="1">
          <mxGeometry x="40" y="80" width="120" height="280" as="geometry" />
        </mxCell>
        <mxCell id="sHecumkxKeYLhao5GwyI-4" value="" style="rounded=0;whiteSpace=wrap;html=1;" vertex="1" parent="1">
          <mxGeometry x="160" y="80" width="120" height="280" as="geometry" />
        </mxCell>
        <mxCell id="sHecumkxKeYLhao5GwyI-5" value="The Environment" style="text;html=1;align=center;verticalAlign=middle;whiteSpace=wrap;rounded=0;fontSize=15;fontStyle=1" vertex="1" parent="1">
          <mxGeometry x="60" y="45" width="200" height="30" as="geometry" />
        </mxCell>
        <mxCell id="sHecumkxKeYLhao5GwyI-6" value="Marketing&lt;div&gt;Stimuli&lt;/div&gt;" style="text;html=1;align=center;verticalAlign=middle;whiteSpace=wrap;rounded=0;fontSize=15;fontStyle=1" vertex="1" parent="1">
          <mxGeometry x="50" y="80" width="100" height="40" as="geometry" />
        </mxCell>
        <mxCell id="sHecumkxKeYLhao5GwyI-7" value="Other&lt;div&gt;Stimuli&lt;/div&gt;" style="text;html=1;align=center;verticalAlign=middle;whiteSpace=wrap;rounded=0;fontSize=15;fontStyle=1" vertex="1" parent="1">
          <mxGeometry x="170" y="80" width="100" height="40" as="geometry" />
        </mxCell>
        <mxCell id="sHecumkxKeYLhao5GwyI-8" value="Product" style="text;html=1;align=center;verticalAlign=middle;whiteSpace=wrap;rounded=0;fontSize=14;fontStyle=0" vertex="1" parent="1">
          <mxGeometry x="50" y="140" width="100" height="40" as="geometry" />
        </mxCell>
        <mxCell id="sHecumkxKeYLhao5GwyI-9" value="Price" style="text;html=1;align=center;verticalAlign=middle;whiteSpace=wrap;rounded=0;fontSize=14;fontStyle=0" vertex="1" parent="1">
          <mxGeometry x="50" y="190" width="100" height="40" as="geometry" />
        </mxCell>
        <mxCell id="sHecumkxKeYLhao5GwyI-10" value="Place" style="text;html=1;align=center;verticalAlign=middle;whiteSpace=wrap;rounded=0;fontSize=14;fontStyle=0" vertex="1" parent="1">
          <mxGeometry x="50" y="240" width="100" height="40" as="geometry" />
        </mxCell>
        <mxCell id="sHecumkxKeYLhao5GwyI-11" value="Promotion" style="text;html=1;align=center;verticalAlign=middle;whiteSpace=wrap;rounded=0;fontSize=14;fontStyle=0" vertex="1" parent="1">
          <mxGeometry x="50" y="290" width="100" height="40" as="geometry" />
        </mxCell>
        <mxCell id="sHecumkxKeYLhao5GwyI-12" value="Economic" style="text;html=1;align=center;verticalAlign=middle;whiteSpace=wrap;rounded=0;fontSize=14;fontStyle=0" vertex="1" parent="1">
          <mxGeometry x="170" y="140" width="100" height="40" as="geometry" />
        </mxCell>
        <mxCell id="sHecumkxKeYLhao5GwyI-13" value="Technological" style="text;html=1;align=center;verticalAlign=middle;whiteSpace=wrap;rounded=0;fontSize=14;fontStyle=0" vertex="1" parent="1">
          <mxGeometry x="170" y="180" width="100" height="40" as="geometry" />
        </mxCell>
        <mxCell id="sHecumkxKeYLhao5GwyI-14" value="Political" style="text;html=1;align=center;verticalAlign=middle;whiteSpace=wrap;rounded=0;fontSize=14;fontStyle=0" vertex="1" parent="1">
          <mxGeometry x="170" y="230" width="100" height="40" as="geometry" />
        </mxCell>
        <mxCell id="sHecumkxKeYLhao5GwyI-15" value="Cultural" style="text;html=1;align=center;verticalAlign=middle;whiteSpace=wrap;rounded=0;fontSize=14;fontStyle=0" vertex="1" parent="1">
          <mxGeometry x="170" y="270" width="100" height="40" as="geometry" />
        </mxCell>
        <mxCell id="sHecumkxKeYLhao5GwyI-16" value="Competitive" style="text;html=1;align=center;verticalAlign=middle;whiteSpace=wrap;rounded=0;fontSize=14;fontStyle=0" vertex="1" parent="1">
          <mxGeometry x="170" y="310" width="100" height="40" as="geometry" />
        </mxCell>
        <mxCell id="sHecumkxKeYLhao5GwyI-17" value="" style="shape=flexArrow;endArrow=classic;html=1;rounded=0;" edge="1" parent="1">
          <mxGeometry width="50" height="50" relative="1" as="geometry">
            <mxPoint x="300" y="199.5" as="sourcePoint" />
            <mxPoint x="350" y="199.5" as="targetPoint" />
          </mxGeometry>
        </mxCell>
        <mxCell id="sHecumkxKeYLhao5GwyI-18" value="" style="rounded=0;whiteSpace=wrap;html=1;" vertex="1" parent="1">
          <mxGeometry x="360" y="40" width="240" height="320" as="geometry" />
        </mxCell>
        <mxCell id="sHecumkxKeYLhao5GwyI-19" value="The Buying Organization" style="text;html=1;align=center;verticalAlign=middle;whiteSpace=wrap;rounded=0;fontSize=15;fontStyle=1" vertex="1" parent="1">
          <mxGeometry x="380" y="50" width="200" height="30" as="geometry" />
        </mxCell>
        <mxCell id="sHecumkxKeYLhao5GwyI-20" value="" style="rounded=0;whiteSpace=wrap;html=1;" vertex="1" parent="1">
          <mxGeometry x="400" y="90" width="160" height="220" as="geometry" />
        </mxCell>
        <mxCell id="sHecumkxKeYLhao5GwyI-21" value="The Buying Center" style="text;html=1;align=center;verticalAlign=middle;whiteSpace=wrap;rounded=0;fontSize=15;fontStyle=1" vertex="1" parent="1">
          <mxGeometry x="380" y="100" width="200" height="30" as="geometry" />
        </mxCell>
        <mxCell id="sHecumkxKeYLhao5GwyI-22" value="" style="rounded=0;whiteSpace=wrap;html=1;" vertex="1" parent="1">
          <mxGeometry x="430" y="150" width="100" height="80" as="geometry" />
        </mxCell>
        <mxCell id="sHecumkxKeYLhao5GwyI-23" value="Buying Decision Process" style="text;html=1;align=center;verticalAlign=middle;whiteSpace=wrap;rounded=0;fontSize=15;fontStyle=1" vertex="1" parent="1">
          <mxGeometry x="430" y="150" width="100" height="80" as="geometry" />
        </mxCell>
        <mxCell id="sHecumkxKeYLhao5GwyI-24" value="(Interpersonal and Individual Influences)" style="text;html=1;align=center;verticalAlign=middle;whiteSpace=wrap;rounded=0;fontSize=14;fontStyle=0" vertex="1" parent="1">
          <mxGeometry x="400" y="250" width="160" height="40" as="geometry" />
        </mxCell>
        <mxCell id="sHecumkxKeYLhao5GwyI-25" value="(Organizational Influences)" style="text;html=1;align=center;verticalAlign=middle;whiteSpace=wrap;rounded=0;fontSize=14;fontStyle=0" vertex="1" parent="1">
          <mxGeometry x="390" y="320" width="190" height="40" as="geometry" />
        </mxCell>
        <mxCell id="sHecumkxKeYLhao5GwyI-26" value="" style="shape=flexArrow;endArrow=classic;html=1;rounded=0;" edge="1" parent="1">
          <mxGeometry width="50" height="50" relative="1" as="geometry">
            <mxPoint x="620" y="199.5" as="sourcePoint" />
            <mxPoint x="670" y="199.5" as="targetPoint" />
          </mxGeometry>
        </mxCell>
        <mxCell id="sHecumkxKeYLhao5GwyI-27" value="" style="rounded=0;whiteSpace=wrap;html=1;" vertex="1" parent="1">
          <mxGeometry x="680" y="80" width="160" height="280" as="geometry" />
        </mxCell>
        <mxCell id="sHecumkxKeYLhao5GwyI-28" value="" style="rounded=0;whiteSpace=wrap;html=1;" vertex="1" parent="1">
          <mxGeometry x="680" y="40" width="160" height="40" as="geometry" />
        </mxCell>
        <mxCell id="sHecumkxKeYLhao5GwyI-29" value="Buyer Response" style="text;html=1;align=center;verticalAlign=middle;whiteSpace=wrap;rounded=0;fontSize=15;fontStyle=1" vertex="1" parent="1">
          <mxGeometry x="660" y="45" width="200" height="30" as="geometry" />
        </mxCell>
        <mxCell id="sHecumkxKeYLhao5GwyI-31" value="Product or Service Choice" style="text;html=1;align=center;verticalAlign=middle;whiteSpace=wrap;rounded=0;fontSize=14;fontStyle=0" vertex="1" parent="1">
          <mxGeometry x="710" y="80" width="100" height="40" as="geometry" />
        </mxCell>
        <mxCell id="sHecumkxKeYLhao5GwyI-32" value="Supplier Choice" style="text;html=1;align=center;verticalAlign=middle;whiteSpace=wrap;rounded=0;fontSize=14;fontStyle=0" vertex="1" parent="1">
          <mxGeometry x="680" y="130" width="160" height="40" as="geometry" />
        </mxCell>
        <mxCell id="sHecumkxKeYLhao5GwyI-33" value="Order Quantities" style="text;html=1;align=center;verticalAlign=middle;whiteSpace=wrap;rounded=0;fontSize=14;fontStyle=0" vertex="1" parent="1">
          <mxGeometry x="680" y="180" width="160" height="40" as="geometry" />
        </mxCell>
        <mxCell id="sHecumkxKeYLhao5GwyI-34" value="Delivery Terms and Times" style="text;html=1;align=center;verticalAlign=middle;whiteSpace=wrap;rounded=0;fontSize=14;fontStyle=0" vertex="1" parent="1">
          <mxGeometry x="680" y="230" width="160" height="40" as="geometry" />
        </mxCell>
        <mxCell id="sHecumkxKeYLhao5GwyI-35" value="Service Terms" style="text;html=1;align=center;verticalAlign=middle;whiteSpace=wrap;rounded=0;fontSize=14;fontStyle=0" vertex="1" parent="1">
          <mxGeometry x="680" y="280" width="160" height="40" as="geometry" />
        </mxCell>
        <mxCell id="sHecumkxKeYLhao5GwyI-36" value="Payment" style="text;html=1;align=center;verticalAlign=middle;whiteSpace=wrap;rounded=0;fontSize=14;fontStyle=0" vertex="1" parent="1">
          <mxGeometry x="680" y="320" width="160" height="40" as="geometry" />
        </mxCell>
      </root>
    </mxGraphModel>
  </diagram>
  <diagram id="wBqLk_NoW9smkIkLeC6h" name="Page-2">
    <mxGraphModel dx="364" dy="522" grid="1" gridSize="10" guides="1" tooltips="1" connect="1" arrows="1" fold="1" page="1" pageScale="1" pageWidth="850" pageHeight="1100" math="0" shadow="0">
      <root>
        <mxCell id="0" />
        <mxCell id="1" parent="0" />
      </root>
    </mxGraphModel>
  </diagram>
</mxfile>
